<mxfile host="drawio-plugin" modified="2021-03-30T00:47:56.597Z" agent="5.0 (X11; Linux x86_64) AppleWebKit/537.36 (KHTML, like Gecko) Chrome/84.0.4147.105 Safari/537.36" etag="oqy0dV5fK-Nj_Wgxak02" version="13.7.9" type="embed" pages="3"><diagram id="R2lEEEUBdFMjLlhIrx00" name="V1"><mxGraphModel dx="1127" dy="727" grid="1" gridSize="10" guides="1" tooltips="1" connect="1" arrows="1" fold="1" page="1" pageScale="1" pageWidth="850" pageHeight="1100" math="0" shadow="0" extFonts="Permanent Marker^https://fonts.googleapis.com/css?family=Permanent+Marker"><root><mxCell id="0"/><mxCell id="1" parent="0"/><mxCell id="24EMHkCum21xKDT42rH6-1" value="Cliente" style="shape=table;startSize=30;container=1;collapsible=1;childLayout=tableLayout;fixedRows=1;rowLines=0;fontStyle=1;align=center;resizeLast=1;fontSize=12;" parent="1" vertex="1"><mxGeometry x="20" y="10" width="250" height="240" as="geometry"/></mxCell><mxCell id="24EMHkCum21xKDT42rH6-2" value="" style="shape=partialRectangle;collapsible=0;dropTarget=0;pointerEvents=0;fillColor=none;points=[[0,0.5],[1,0.5]];portConstraint=eastwest;top=0;left=0;right=0;bottom=1;fontSize=12;" parent="24EMHkCum21xKDT42rH6-1" vertex="1"><mxGeometry y="30" width="250" height="30" as="geometry"/></mxCell><mxCell id="24EMHkCum21xKDT42rH6-3" value="PK" style="shape=partialRectangle;overflow=hidden;connectable=0;fillColor=none;top=0;left=0;bottom=0;right=0;fontStyle=1;fontSize=12;" parent="24EMHkCum21xKDT42rH6-2" vertex="1"><mxGeometry width="30" height="30" as="geometry"/></mxCell><mxCell id="24EMHkCum21xKDT42rH6-4" value="id int NOT NULL " style="shape=partialRectangle;overflow=hidden;connectable=0;fillColor=none;top=0;left=0;bottom=0;right=0;align=left;spacingLeft=6;fontStyle=5;fontSize=12;" parent="24EMHkCum21xKDT42rH6-2" vertex="1"><mxGeometry x="30" width="220" height="30" as="geometry"/></mxCell><mxCell id="24EMHkCum21xKDT42rH6-5" value="" style="shape=partialRectangle;collapsible=0;dropTarget=0;pointerEvents=0;fillColor=none;points=[[0,0.5],[1,0.5]];portConstraint=eastwest;top=0;left=0;right=0;bottom=0;fontSize=12;" parent="24EMHkCum21xKDT42rH6-1" vertex="1"><mxGeometry y="60" width="250" height="30" as="geometry"/></mxCell><mxCell id="24EMHkCum21xKDT42rH6-6" value="" style="shape=partialRectangle;overflow=hidden;connectable=0;fillColor=none;top=0;left=0;bottom=0;right=0;fontSize=12;" parent="24EMHkCum21xKDT42rH6-5" vertex="1"><mxGeometry width="30" height="30" as="geometry"/></mxCell><mxCell id="24EMHkCum21xKDT42rH6-7" value="nome varchar(50) NOT NULL" style="shape=partialRectangle;overflow=hidden;connectable=0;fillColor=none;top=0;left=0;bottom=0;right=0;align=left;spacingLeft=6;fontSize=12;" parent="24EMHkCum21xKDT42rH6-5" vertex="1"><mxGeometry x="30" width="220" height="30" as="geometry"/></mxCell><mxCell id="24EMHkCum21xKDT42rH6-8" value="" style="shape=partialRectangle;collapsible=0;dropTarget=0;pointerEvents=0;fillColor=none;points=[[0,0.5],[1,0.5]];portConstraint=eastwest;top=0;left=0;right=0;bottom=0;fontSize=12;" parent="24EMHkCum21xKDT42rH6-1" vertex="1"><mxGeometry y="90" width="250" height="30" as="geometry"/></mxCell><mxCell id="24EMHkCum21xKDT42rH6-9" value="" style="shape=partialRectangle;overflow=hidden;connectable=0;fillColor=none;top=0;left=0;bottom=0;right=0;fontSize=12;" parent="24EMHkCum21xKDT42rH6-8" vertex="1"><mxGeometry width="30" height="30" as="geometry"/></mxCell><mxCell id="24EMHkCum21xKDT42rH6-10" value="cpf varchar(11) NOT NULL" style="shape=partialRectangle;overflow=hidden;connectable=0;fillColor=none;top=0;left=0;bottom=0;right=0;align=left;spacingLeft=6;fontSize=12;" parent="24EMHkCum21xKDT42rH6-8" vertex="1"><mxGeometry x="30" width="220" height="30" as="geometry"/></mxCell><mxCell id="24EMHkCum21xKDT42rH6-11" value="" style="shape=partialRectangle;collapsible=0;dropTarget=0;pointerEvents=0;fillColor=none;points=[[0,0.5],[1,0.5]];portConstraint=eastwest;top=0;left=0;right=0;bottom=0;fontSize=12;" parent="24EMHkCum21xKDT42rH6-1" vertex="1"><mxGeometry y="120" width="250" height="30" as="geometry"/></mxCell><mxCell id="24EMHkCum21xKDT42rH6-12" value="" style="shape=partialRectangle;overflow=hidden;connectable=0;fillColor=none;top=0;left=0;bottom=0;right=0;fontSize=12;" parent="24EMHkCum21xKDT42rH6-11" vertex="1"><mxGeometry width="30" height="30" as="geometry"/></mxCell><mxCell id="24EMHkCum21xKDT42rH6-13" value="rg varchar(9) NOT NULL" style="shape=partialRectangle;overflow=hidden;connectable=0;fillColor=none;top=0;left=0;bottom=0;right=0;align=left;spacingLeft=6;fontSize=12;" parent="24EMHkCum21xKDT42rH6-11" vertex="1"><mxGeometry x="30" width="220" height="30" as="geometry"/></mxCell><mxCell id="24EMHkCum21xKDT42rH6-14" value="" style="shape=partialRectangle;collapsible=0;dropTarget=0;pointerEvents=0;fillColor=none;points=[[0,0.5],[1,0.5]];portConstraint=eastwest;top=0;left=0;right=0;bottom=0;fontSize=12;" parent="24EMHkCum21xKDT42rH6-1" vertex="1"><mxGeometry y="150" width="250" height="30" as="geometry"/></mxCell><mxCell id="24EMHkCum21xKDT42rH6-15" value="" style="shape=partialRectangle;overflow=hidden;connectable=0;fillColor=none;top=0;left=0;bottom=0;right=0;fontSize=12;" parent="24EMHkCum21xKDT42rH6-14" vertex="1"><mxGeometry width="30" height="30" as="geometry"/></mxCell><mxCell id="24EMHkCum21xKDT42rH6-16" value="nascimento date NULL" style="shape=partialRectangle;overflow=hidden;connectable=0;fillColor=none;top=0;left=0;bottom=0;right=0;align=left;spacingLeft=6;fontSize=12;" parent="24EMHkCum21xKDT42rH6-14" vertex="1"><mxGeometry x="30" width="220" height="30" as="geometry"/></mxCell><mxCell id="24EMHkCum21xKDT42rH6-17" value="" style="shape=partialRectangle;collapsible=0;dropTarget=0;pointerEvents=0;fillColor=none;points=[[0,0.5],[1,0.5]];portConstraint=eastwest;top=0;left=0;right=0;bottom=0;fontSize=12;" parent="24EMHkCum21xKDT42rH6-1" vertex="1"><mxGeometry y="180" width="250" height="30" as="geometry"/></mxCell><mxCell id="24EMHkCum21xKDT42rH6-18" value="" style="shape=partialRectangle;overflow=hidden;connectable=0;fillColor=none;top=0;left=0;bottom=0;right=0;fontSize=12;" parent="24EMHkCum21xKDT42rH6-17" vertex="1"><mxGeometry width="30" height="30" as="geometry"/></mxCell><mxCell id="24EMHkCum21xKDT42rH6-19" value="sexo varchar(10) NULL" style="shape=partialRectangle;overflow=hidden;connectable=0;fillColor=none;top=0;left=0;bottom=0;right=0;align=left;spacingLeft=6;fontSize=12;" parent="24EMHkCum21xKDT42rH6-17" vertex="1"><mxGeometry x="30" width="220" height="30" as="geometry"/></mxCell><mxCell id="4WD2yJiP4LMq93GS-y8--1" value="" style="shape=partialRectangle;collapsible=0;dropTarget=0;pointerEvents=0;fillColor=none;points=[[0,0.5],[1,0.5]];portConstraint=eastwest;top=0;left=0;right=0;bottom=0;fontSize=12;" parent="24EMHkCum21xKDT42rH6-1" vertex="1"><mxGeometry y="210" width="250" height="30" as="geometry"/></mxCell><mxCell id="4WD2yJiP4LMq93GS-y8--2" value="" style="shape=partialRectangle;overflow=hidden;connectable=0;fillColor=none;top=0;left=0;bottom=0;right=0;fontSize=12;" parent="4WD2yJiP4LMq93GS-y8--1" vertex="1"><mxGeometry width="30" height="30" as="geometry"/></mxCell><mxCell id="4WD2yJiP4LMq93GS-y8--3" value="endereco varchar(200) NOT NULL" style="shape=partialRectangle;overflow=hidden;connectable=0;fillColor=none;top=0;left=0;bottom=0;right=0;align=left;spacingLeft=6;fontSize=12;" parent="4WD2yJiP4LMq93GS-y8--1" vertex="1"><mxGeometry x="30" width="220" height="30" as="geometry"/></mxCell></root></mxGraphModel></diagram><diagram name="V2" id="QrYqErCnKtLFOPwVDsvQ"><mxGraphModel dx="1641" dy="727" grid="1" gridSize="10" guides="1" tooltips="1" connect="1" arrows="1" fold="1" page="1" pageScale="1" pageWidth="850" pageHeight="1100" math="0" shadow="0" extFonts="Permanent Marker^https://fonts.googleapis.com/css?family=Permanent+Marker"><root><mxCell id="2iitx1kNbTNrJVwOfDFM-0"/><mxCell id="2iitx1kNbTNrJVwOfDFM-1" parent="2iitx1kNbTNrJVwOfDFM-0"/><mxCell id="2iitx1kNbTNrJVwOfDFM-2" value="Cliente" style="shape=table;startSize=30;container=1;collapsible=1;childLayout=tableLayout;fixedRows=1;rowLines=0;fontStyle=1;align=center;resizeLast=1;fontSize=12;" parent="2iitx1kNbTNrJVwOfDFM-1" vertex="1"><mxGeometry x="20" y="10" width="250" height="240" as="geometry"/></mxCell><mxCell id="2iitx1kNbTNrJVwOfDFM-3" value="" style="shape=partialRectangle;collapsible=0;dropTarget=0;pointerEvents=0;fillColor=none;points=[[0,0.5],[1,0.5]];portConstraint=eastwest;top=0;left=0;right=0;bottom=1;fontSize=12;" parent="2iitx1kNbTNrJVwOfDFM-2" vertex="1"><mxGeometry y="30" width="250" height="30" as="geometry"/></mxCell><mxCell id="2iitx1kNbTNrJVwOfDFM-4" value="PK" style="shape=partialRectangle;overflow=hidden;connectable=0;fillColor=none;top=0;left=0;bottom=0;right=0;fontStyle=1;fontSize=12;" parent="2iitx1kNbTNrJVwOfDFM-3" vertex="1"><mxGeometry width="30" height="30" as="geometry"/></mxCell><mxCell id="2iitx1kNbTNrJVwOfDFM-5" value="id int NOT NULL " style="shape=partialRectangle;overflow=hidden;connectable=0;fillColor=none;top=0;left=0;bottom=0;right=0;align=left;spacingLeft=6;fontStyle=5;fontSize=12;" parent="2iitx1kNbTNrJVwOfDFM-3" vertex="1"><mxGeometry x="30" width="220" height="30" as="geometry"/></mxCell><mxCell id="2iitx1kNbTNrJVwOfDFM-6" value="" style="shape=partialRectangle;collapsible=0;dropTarget=0;pointerEvents=0;fillColor=none;points=[[0,0.5],[1,0.5]];portConstraint=eastwest;top=0;left=0;right=0;bottom=0;fontSize=12;" parent="2iitx1kNbTNrJVwOfDFM-2" vertex="1"><mxGeometry y="60" width="250" height="30" as="geometry"/></mxCell><mxCell id="2iitx1kNbTNrJVwOfDFM-7" value="" style="shape=partialRectangle;overflow=hidden;connectable=0;fillColor=none;top=0;left=0;bottom=0;right=0;fontSize=12;" parent="2iitx1kNbTNrJVwOfDFM-6" vertex="1"><mxGeometry width="30" height="30" as="geometry"/></mxCell><mxCell id="2iitx1kNbTNrJVwOfDFM-8" value="nome varchar(50) NOT NULL" style="shape=partialRectangle;overflow=hidden;connectable=0;fillColor=none;top=0;left=0;bottom=0;right=0;align=left;spacingLeft=6;fontSize=12;" parent="2iitx1kNbTNrJVwOfDFM-6" vertex="1"><mxGeometry x="30" width="220" height="30" as="geometry"/></mxCell><mxCell id="2iitx1kNbTNrJVwOfDFM-9" value="" style="shape=partialRectangle;collapsible=0;dropTarget=0;pointerEvents=0;fillColor=none;points=[[0,0.5],[1,0.5]];portConstraint=eastwest;top=0;left=0;right=0;bottom=0;fontSize=12;" parent="2iitx1kNbTNrJVwOfDFM-2" vertex="1"><mxGeometry y="90" width="250" height="30" as="geometry"/></mxCell><mxCell id="2iitx1kNbTNrJVwOfDFM-10" value="" style="shape=partialRectangle;overflow=hidden;connectable=0;fillColor=none;top=0;left=0;bottom=0;right=0;fontSize=12;" parent="2iitx1kNbTNrJVwOfDFM-9" vertex="1"><mxGeometry width="30" height="30" as="geometry"/></mxCell><mxCell id="2iitx1kNbTNrJVwOfDFM-11" value="cpf varchar(11) NOT NULL" style="shape=partialRectangle;overflow=hidden;connectable=0;fillColor=none;top=0;left=0;bottom=0;right=0;align=left;spacingLeft=6;fontSize=12;" parent="2iitx1kNbTNrJVwOfDFM-9" vertex="1"><mxGeometry x="30" width="220" height="30" as="geometry"/></mxCell><mxCell id="2iitx1kNbTNrJVwOfDFM-12" value="" style="shape=partialRectangle;collapsible=0;dropTarget=0;pointerEvents=0;fillColor=none;points=[[0,0.5],[1,0.5]];portConstraint=eastwest;top=0;left=0;right=0;bottom=0;fontSize=12;" parent="2iitx1kNbTNrJVwOfDFM-2" vertex="1"><mxGeometry y="120" width="250" height="30" as="geometry"/></mxCell><mxCell id="2iitx1kNbTNrJVwOfDFM-13" value="" style="shape=partialRectangle;overflow=hidden;connectable=0;fillColor=none;top=0;left=0;bottom=0;right=0;fontSize=12;" parent="2iitx1kNbTNrJVwOfDFM-12" vertex="1"><mxGeometry width="30" height="30" as="geometry"/></mxCell><mxCell id="2iitx1kNbTNrJVwOfDFM-14" value="rg varchar(9) NOT NULL" style="shape=partialRectangle;overflow=hidden;connectable=0;fillColor=none;top=0;left=0;bottom=0;right=0;align=left;spacingLeft=6;fontSize=12;" parent="2iitx1kNbTNrJVwOfDFM-12" vertex="1"><mxGeometry x="30" width="220" height="30" as="geometry"/></mxCell><mxCell id="2iitx1kNbTNrJVwOfDFM-15" value="" style="shape=partialRectangle;collapsible=0;dropTarget=0;pointerEvents=0;fillColor=none;points=[[0,0.5],[1,0.5]];portConstraint=eastwest;top=0;left=0;right=0;bottom=0;fontSize=12;" parent="2iitx1kNbTNrJVwOfDFM-2" vertex="1"><mxGeometry y="150" width="250" height="30" as="geometry"/></mxCell><mxCell id="2iitx1kNbTNrJVwOfDFM-16" value="" style="shape=partialRectangle;overflow=hidden;connectable=0;fillColor=none;top=0;left=0;bottom=0;right=0;fontSize=12;" parent="2iitx1kNbTNrJVwOfDFM-15" vertex="1"><mxGeometry width="30" height="30" as="geometry"/></mxCell><mxCell id="2iitx1kNbTNrJVwOfDFM-17" value="nascimento date NULL" style="shape=partialRectangle;overflow=hidden;connectable=0;fillColor=none;top=0;left=0;bottom=0;right=0;align=left;spacingLeft=6;fontSize=12;" parent="2iitx1kNbTNrJVwOfDFM-15" vertex="1"><mxGeometry x="30" width="220" height="30" as="geometry"/></mxCell><mxCell id="2iitx1kNbTNrJVwOfDFM-18" value="" style="shape=partialRectangle;collapsible=0;dropTarget=0;pointerEvents=0;fillColor=none;points=[[0,0.5],[1,0.5]];portConstraint=eastwest;top=0;left=0;right=0;bottom=0;fontSize=12;" parent="2iitx1kNbTNrJVwOfDFM-2" vertex="1"><mxGeometry y="180" width="250" height="30" as="geometry"/></mxCell><mxCell id="2iitx1kNbTNrJVwOfDFM-19" value="" style="shape=partialRectangle;overflow=hidden;connectable=0;fillColor=none;top=0;left=0;bottom=0;right=0;fontSize=12;" parent="2iitx1kNbTNrJVwOfDFM-18" vertex="1"><mxGeometry width="30" height="30" as="geometry"/></mxCell><mxCell id="2iitx1kNbTNrJVwOfDFM-20" value="sexo varchar(10) NULL" style="shape=partialRectangle;overflow=hidden;connectable=0;fillColor=none;top=0;left=0;bottom=0;right=0;align=left;spacingLeft=6;fontSize=12;" parent="2iitx1kNbTNrJVwOfDFM-18" vertex="1"><mxGeometry x="30" width="220" height="30" as="geometry"/></mxCell><mxCell id="2iitx1kNbTNrJVwOfDFM-21" value="" style="shape=partialRectangle;collapsible=0;dropTarget=0;pointerEvents=0;fillColor=none;points=[[0,0.5],[1,0.5]];portConstraint=eastwest;top=0;left=0;right=0;bottom=0;fontSize=12;" parent="2iitx1kNbTNrJVwOfDFM-2" vertex="1"><mxGeometry y="210" width="250" height="30" as="geometry"/></mxCell><mxCell id="2iitx1kNbTNrJVwOfDFM-22" value="" style="shape=partialRectangle;overflow=hidden;connectable=0;fillColor=none;top=0;left=0;bottom=0;right=0;fontSize=12;" parent="2iitx1kNbTNrJVwOfDFM-21" vertex="1"><mxGeometry width="30" height="30" as="geometry"/></mxCell><mxCell id="2iitx1kNbTNrJVwOfDFM-23" value="endereco varchar(200) NOT NULL" style="shape=partialRectangle;overflow=hidden;connectable=0;fillColor=none;top=0;left=0;bottom=0;right=0;align=left;spacingLeft=6;fontSize=12;" parent="2iitx1kNbTNrJVwOfDFM-21" vertex="1"><mxGeometry x="30" width="220" height="30" as="geometry"/></mxCell><mxCell id="2iitx1kNbTNrJVwOfDFM-24" value="Produto" style="shape=table;startSize=30;container=1;collapsible=1;childLayout=tableLayout;fixedRows=1;rowLines=0;fontStyle=1;align=center;resizeLast=1;fontSize=12;" parent="2iitx1kNbTNrJVwOfDFM-1" vertex="1"><mxGeometry x="580" y="10" width="250" height="240" as="geometry"/></mxCell><mxCell id="2iitx1kNbTNrJVwOfDFM-25" value="" style="shape=partialRectangle;collapsible=0;dropTarget=0;pointerEvents=0;fillColor=none;points=[[0,0.5],[1,0.5]];portConstraint=eastwest;top=0;left=0;right=0;bottom=1;fontSize=12;" parent="2iitx1kNbTNrJVwOfDFM-24" vertex="1"><mxGeometry y="30" width="250" height="30" as="geometry"/></mxCell><mxCell id="2iitx1kNbTNrJVwOfDFM-26" value="PK" style="shape=partialRectangle;overflow=hidden;connectable=0;fillColor=none;top=0;left=0;bottom=0;right=0;fontStyle=1;fontSize=12;" parent="2iitx1kNbTNrJVwOfDFM-25" vertex="1"><mxGeometry width="30" height="30" as="geometry"/></mxCell><mxCell id="2iitx1kNbTNrJVwOfDFM-27" value="id int NOT NULL " style="shape=partialRectangle;overflow=hidden;connectable=0;fillColor=none;top=0;left=0;bottom=0;right=0;align=left;spacingLeft=6;fontStyle=5;fontSize=12;" parent="2iitx1kNbTNrJVwOfDFM-25" vertex="1"><mxGeometry x="30" width="220" height="30" as="geometry"/></mxCell><mxCell id="2iitx1kNbTNrJVwOfDFM-28" value="" style="shape=partialRectangle;collapsible=0;dropTarget=0;pointerEvents=0;fillColor=none;points=[[0,0.5],[1,0.5]];portConstraint=eastwest;top=0;left=0;right=0;bottom=0;fontSize=12;" parent="2iitx1kNbTNrJVwOfDFM-24" vertex="1"><mxGeometry y="60" width="250" height="30" as="geometry"/></mxCell><mxCell id="2iitx1kNbTNrJVwOfDFM-29" value="" style="shape=partialRectangle;overflow=hidden;connectable=0;fillColor=none;top=0;left=0;bottom=0;right=0;fontSize=12;" parent="2iitx1kNbTNrJVwOfDFM-28" vertex="1"><mxGeometry width="30" height="30" as="geometry"/></mxCell><mxCell id="2iitx1kNbTNrJVwOfDFM-30" value="nome varchar(50) NOT NULL" style="shape=partialRectangle;overflow=hidden;connectable=0;fillColor=none;top=0;left=0;bottom=0;right=0;align=left;spacingLeft=6;fontSize=12;" parent="2iitx1kNbTNrJVwOfDFM-28" vertex="1"><mxGeometry x="30" width="220" height="30" as="geometry"/></mxCell><mxCell id="2iitx1kNbTNrJVwOfDFM-31" value="" style="shape=partialRectangle;collapsible=0;dropTarget=0;pointerEvents=0;fillColor=none;points=[[0,0.5],[1,0.5]];portConstraint=eastwest;top=0;left=0;right=0;bottom=0;fontSize=12;" parent="2iitx1kNbTNrJVwOfDFM-24" vertex="1"><mxGeometry y="90" width="250" height="30" as="geometry"/></mxCell><mxCell id="2iitx1kNbTNrJVwOfDFM-32" value="" style="shape=partialRectangle;overflow=hidden;connectable=0;fillColor=none;top=0;left=0;bottom=0;right=0;fontSize=12;" parent="2iitx1kNbTNrJVwOfDFM-31" vertex="1"><mxGeometry width="30" height="30" as="geometry"/></mxCell><mxCell id="2iitx1kNbTNrJVwOfDFM-33" value="setor varchar(10) NOT NULL" style="shape=partialRectangle;overflow=hidden;connectable=0;fillColor=none;top=0;left=0;bottom=0;right=0;align=left;spacingLeft=6;fontSize=12;" parent="2iitx1kNbTNrJVwOfDFM-31" vertex="1"><mxGeometry x="30" width="220" height="30" as="geometry"/></mxCell><mxCell id="2iitx1kNbTNrJVwOfDFM-34" value="" style="shape=partialRectangle;collapsible=0;dropTarget=0;pointerEvents=0;fillColor=none;points=[[0,0.5],[1,0.5]];portConstraint=eastwest;top=0;left=0;right=0;bottom=0;fontSize=12;" parent="2iitx1kNbTNrJVwOfDFM-24" vertex="1"><mxGeometry y="120" width="250" height="30" as="geometry"/></mxCell><mxCell id="2iitx1kNbTNrJVwOfDFM-35" value="" style="shape=partialRectangle;overflow=hidden;connectable=0;fillColor=none;top=0;left=0;bottom=0;right=0;fontSize=12;" parent="2iitx1kNbTNrJVwOfDFM-34" vertex="1"><mxGeometry width="30" height="30" as="geometry"/></mxCell><mxCell id="2iitx1kNbTNrJVwOfDFM-36" value="estoque decimal(10,2) NOT NULL" style="shape=partialRectangle;overflow=hidden;connectable=0;fillColor=none;top=0;left=0;bottom=0;right=0;align=left;spacingLeft=6;fontSize=12;" parent="2iitx1kNbTNrJVwOfDFM-34" vertex="1"><mxGeometry x="30" width="220" height="30" as="geometry"/></mxCell><mxCell id="2iitx1kNbTNrJVwOfDFM-37" value="" style="shape=partialRectangle;collapsible=0;dropTarget=0;pointerEvents=0;fillColor=none;points=[[0,0.5],[1,0.5]];portConstraint=eastwest;top=0;left=0;right=0;bottom=0;fontSize=12;" parent="2iitx1kNbTNrJVwOfDFM-24" vertex="1"><mxGeometry y="150" width="250" height="30" as="geometry"/></mxCell><mxCell id="2iitx1kNbTNrJVwOfDFM-38" value="" style="shape=partialRectangle;overflow=hidden;connectable=0;fillColor=none;top=0;left=0;bottom=0;right=0;fontSize=12;" parent="2iitx1kNbTNrJVwOfDFM-37" vertex="1"><mxGeometry width="30" height="30" as="geometry"/></mxCell><mxCell id="2iitx1kNbTNrJVwOfDFM-39" value="unidade_medida varchar(3) NOT NULL" style="shape=partialRectangle;overflow=hidden;connectable=0;fillColor=none;top=0;left=0;bottom=0;right=0;align=left;spacingLeft=6;fontSize=12;" parent="2iitx1kNbTNrJVwOfDFM-37" vertex="1"><mxGeometry x="30" width="220" height="30" as="geometry"/></mxCell><mxCell id="2iitx1kNbTNrJVwOfDFM-40" value="" style="shape=partialRectangle;collapsible=0;dropTarget=0;pointerEvents=0;fillColor=none;points=[[0,0.5],[1,0.5]];portConstraint=eastwest;top=0;left=0;right=0;bottom=0;fontSize=12;" parent="2iitx1kNbTNrJVwOfDFM-24" vertex="1"><mxGeometry y="180" width="250" height="30" as="geometry"/></mxCell><mxCell id="2iitx1kNbTNrJVwOfDFM-41" value="" style="shape=partialRectangle;overflow=hidden;connectable=0;fillColor=none;top=0;left=0;bottom=0;right=0;fontSize=12;" parent="2iitx1kNbTNrJVwOfDFM-40" vertex="1"><mxGeometry width="30" height="30" as="geometry"/></mxCell><mxCell id="2iitx1kNbTNrJVwOfDFM-42" value="vencimento date NOT NULL" style="shape=partialRectangle;overflow=hidden;connectable=0;fillColor=none;top=0;left=0;bottom=0;right=0;align=left;spacingLeft=6;fontSize=12;" parent="2iitx1kNbTNrJVwOfDFM-40" vertex="1"><mxGeometry x="30" width="220" height="30" as="geometry"/></mxCell><mxCell id="2iitx1kNbTNrJVwOfDFM-43" value="" style="shape=partialRectangle;collapsible=0;dropTarget=0;pointerEvents=0;fillColor=none;points=[[0,0.5],[1,0.5]];portConstraint=eastwest;top=0;left=0;right=0;bottom=0;fontSize=12;" parent="2iitx1kNbTNrJVwOfDFM-24" vertex="1"><mxGeometry y="210" width="250" height="30" as="geometry"/></mxCell><mxCell id="2iitx1kNbTNrJVwOfDFM-44" value="" style="shape=partialRectangle;overflow=hidden;connectable=0;fillColor=none;top=0;left=0;bottom=0;right=0;fontSize=12;" parent="2iitx1kNbTNrJVwOfDFM-43" vertex="1"><mxGeometry width="30" height="30" as="geometry"/></mxCell><mxCell id="2iitx1kNbTNrJVwOfDFM-45" value="fornecedor varchar(100) NULL" style="shape=partialRectangle;overflow=hidden;connectable=0;fillColor=none;top=0;left=0;bottom=0;right=0;align=left;spacingLeft=6;fontSize=12;" parent="2iitx1kNbTNrJVwOfDFM-43" vertex="1"><mxGeometry x="30" width="220" height="30" as="geometry"/></mxCell></root></mxGraphModel></diagram><diagram name="V3" id="onXjAtXterPHGBZPWjKM"><mxGraphModel dx="876" dy="415" grid="1" gridSize="10" guides="1" tooltips="1" connect="1" arrows="1" fold="1" page="1" pageScale="1" pageWidth="850" pageHeight="1100" math="0" shadow="0" extFonts="Permanent Marker^https://fonts.googleapis.com/css?family=Permanent+Marker"><root><mxCell id="5KN0nuKQ1v9Bi-ClYZpO-0"/><mxCell id="5KN0nuKQ1v9Bi-ClYZpO-1" parent="5KN0nuKQ1v9Bi-ClYZpO-0"/><mxCell id="5KN0nuKQ1v9Bi-ClYZpO-2" value="Cliente" style="shape=table;startSize=30;container=1;collapsible=1;childLayout=tableLayout;fixedRows=1;rowLines=0;fontStyle=1;align=center;resizeLast=1;fontSize=12;" vertex="1" parent="5KN0nuKQ1v9Bi-ClYZpO-1"><mxGeometry x="20" y="10" width="250" height="240" as="geometry"/></mxCell><mxCell id="5KN0nuKQ1v9Bi-ClYZpO-3" value="" style="shape=partialRectangle;collapsible=0;dropTarget=0;pointerEvents=0;fillColor=none;points=[[0,0.5],[1,0.5]];portConstraint=eastwest;top=0;left=0;right=0;bottom=1;fontSize=12;" vertex="1" parent="5KN0nuKQ1v9Bi-ClYZpO-2"><mxGeometry y="30" width="250" height="30" as="geometry"/></mxCell><mxCell id="5KN0nuKQ1v9Bi-ClYZpO-4" value="PK" style="shape=partialRectangle;overflow=hidden;connectable=0;fillColor=none;top=0;left=0;bottom=0;right=0;fontStyle=1;fontSize=12;" vertex="1" parent="5KN0nuKQ1v9Bi-ClYZpO-3"><mxGeometry width="30" height="30" as="geometry"/></mxCell><mxCell id="5KN0nuKQ1v9Bi-ClYZpO-5" value="id int NOT NULL " style="shape=partialRectangle;overflow=hidden;connectable=0;fillColor=none;top=0;left=0;bottom=0;right=0;align=left;spacingLeft=6;fontStyle=5;fontSize=12;" vertex="1" parent="5KN0nuKQ1v9Bi-ClYZpO-3"><mxGeometry x="30" width="220" height="30" as="geometry"/></mxCell><mxCell id="5KN0nuKQ1v9Bi-ClYZpO-6" value="" style="shape=partialRectangle;collapsible=0;dropTarget=0;pointerEvents=0;fillColor=none;points=[[0,0.5],[1,0.5]];portConstraint=eastwest;top=0;left=0;right=0;bottom=0;fontSize=12;" vertex="1" parent="5KN0nuKQ1v9Bi-ClYZpO-2"><mxGeometry y="60" width="250" height="30" as="geometry"/></mxCell><mxCell id="5KN0nuKQ1v9Bi-ClYZpO-7" value="" style="shape=partialRectangle;overflow=hidden;connectable=0;fillColor=none;top=0;left=0;bottom=0;right=0;fontSize=12;" vertex="1" parent="5KN0nuKQ1v9Bi-ClYZpO-6"><mxGeometry width="30" height="30" as="geometry"/></mxCell><mxCell id="5KN0nuKQ1v9Bi-ClYZpO-8" value="nome varchar(50) NOT NULL" style="shape=partialRectangle;overflow=hidden;connectable=0;fillColor=none;top=0;left=0;bottom=0;right=0;align=left;spacingLeft=6;fontSize=12;" vertex="1" parent="5KN0nuKQ1v9Bi-ClYZpO-6"><mxGeometry x="30" width="220" height="30" as="geometry"/></mxCell><mxCell id="5KN0nuKQ1v9Bi-ClYZpO-9" value="" style="shape=partialRectangle;collapsible=0;dropTarget=0;pointerEvents=0;fillColor=none;points=[[0,0.5],[1,0.5]];portConstraint=eastwest;top=0;left=0;right=0;bottom=0;fontSize=12;" vertex="1" parent="5KN0nuKQ1v9Bi-ClYZpO-2"><mxGeometry y="90" width="250" height="30" as="geometry"/></mxCell><mxCell id="5KN0nuKQ1v9Bi-ClYZpO-10" value="" style="shape=partialRectangle;overflow=hidden;connectable=0;fillColor=none;top=0;left=0;bottom=0;right=0;fontSize=12;" vertex="1" parent="5KN0nuKQ1v9Bi-ClYZpO-9"><mxGeometry width="30" height="30" as="geometry"/></mxCell><mxCell id="5KN0nuKQ1v9Bi-ClYZpO-11" value="cpf varchar(11) NOT NULL" style="shape=partialRectangle;overflow=hidden;connectable=0;fillColor=none;top=0;left=0;bottom=0;right=0;align=left;spacingLeft=6;fontSize=12;" vertex="1" parent="5KN0nuKQ1v9Bi-ClYZpO-9"><mxGeometry x="30" width="220" height="30" as="geometry"/></mxCell><mxCell id="5KN0nuKQ1v9Bi-ClYZpO-12" value="" style="shape=partialRectangle;collapsible=0;dropTarget=0;pointerEvents=0;fillColor=none;points=[[0,0.5],[1,0.5]];portConstraint=eastwest;top=0;left=0;right=0;bottom=0;fontSize=12;" vertex="1" parent="5KN0nuKQ1v9Bi-ClYZpO-2"><mxGeometry y="120" width="250" height="30" as="geometry"/></mxCell><mxCell id="5KN0nuKQ1v9Bi-ClYZpO-13" value="" style="shape=partialRectangle;overflow=hidden;connectable=0;fillColor=none;top=0;left=0;bottom=0;right=0;fontSize=12;" vertex="1" parent="5KN0nuKQ1v9Bi-ClYZpO-12"><mxGeometry width="30" height="30" as="geometry"/></mxCell><mxCell id="5KN0nuKQ1v9Bi-ClYZpO-14" value="rg varchar(9) NOT NULL" style="shape=partialRectangle;overflow=hidden;connectable=0;fillColor=none;top=0;left=0;bottom=0;right=0;align=left;spacingLeft=6;fontSize=12;" vertex="1" parent="5KN0nuKQ1v9Bi-ClYZpO-12"><mxGeometry x="30" width="220" height="30" as="geometry"/></mxCell><mxCell id="5KN0nuKQ1v9Bi-ClYZpO-15" value="" style="shape=partialRectangle;collapsible=0;dropTarget=0;pointerEvents=0;fillColor=none;points=[[0,0.5],[1,0.5]];portConstraint=eastwest;top=0;left=0;right=0;bottom=0;fontSize=12;" vertex="1" parent="5KN0nuKQ1v9Bi-ClYZpO-2"><mxGeometry y="150" width="250" height="30" as="geometry"/></mxCell><mxCell id="5KN0nuKQ1v9Bi-ClYZpO-16" value="" style="shape=partialRectangle;overflow=hidden;connectable=0;fillColor=none;top=0;left=0;bottom=0;right=0;fontSize=12;" vertex="1" parent="5KN0nuKQ1v9Bi-ClYZpO-15"><mxGeometry width="30" height="30" as="geometry"/></mxCell><mxCell id="5KN0nuKQ1v9Bi-ClYZpO-17" value="nascimento date NULL" style="shape=partialRectangle;overflow=hidden;connectable=0;fillColor=none;top=0;left=0;bottom=0;right=0;align=left;spacingLeft=6;fontSize=12;" vertex="1" parent="5KN0nuKQ1v9Bi-ClYZpO-15"><mxGeometry x="30" width="220" height="30" as="geometry"/></mxCell><mxCell id="5KN0nuKQ1v9Bi-ClYZpO-18" value="" style="shape=partialRectangle;collapsible=0;dropTarget=0;pointerEvents=0;fillColor=none;points=[[0,0.5],[1,0.5]];portConstraint=eastwest;top=0;left=0;right=0;bottom=0;fontSize=12;" vertex="1" parent="5KN0nuKQ1v9Bi-ClYZpO-2"><mxGeometry y="180" width="250" height="30" as="geometry"/></mxCell><mxCell id="5KN0nuKQ1v9Bi-ClYZpO-19" value="" style="shape=partialRectangle;overflow=hidden;connectable=0;fillColor=none;top=0;left=0;bottom=0;right=0;fontSize=12;" vertex="1" parent="5KN0nuKQ1v9Bi-ClYZpO-18"><mxGeometry width="30" height="30" as="geometry"/></mxCell><mxCell id="5KN0nuKQ1v9Bi-ClYZpO-20" value="sexo varchar(10) NULL" style="shape=partialRectangle;overflow=hidden;connectable=0;fillColor=none;top=0;left=0;bottom=0;right=0;align=left;spacingLeft=6;fontSize=12;" vertex="1" parent="5KN0nuKQ1v9Bi-ClYZpO-18"><mxGeometry x="30" width="220" height="30" as="geometry"/></mxCell><mxCell id="5KN0nuKQ1v9Bi-ClYZpO-21" value="" style="shape=partialRectangle;collapsible=0;dropTarget=0;pointerEvents=0;fillColor=none;points=[[0,0.5],[1,0.5]];portConstraint=eastwest;top=0;left=0;right=0;bottom=0;fontSize=12;" vertex="1" parent="5KN0nuKQ1v9Bi-ClYZpO-2"><mxGeometry y="210" width="250" height="30" as="geometry"/></mxCell><mxCell id="5KN0nuKQ1v9Bi-ClYZpO-22" value="FK" style="shape=partialRectangle;overflow=hidden;connectable=0;fillColor=none;top=0;left=0;bottom=0;right=0;fontSize=12;" vertex="1" parent="5KN0nuKQ1v9Bi-ClYZpO-21"><mxGeometry width="30" height="30" as="geometry"/></mxCell><mxCell id="5KN0nuKQ1v9Bi-ClYZpO-23" value="endereco_fk int NOT NULL" style="shape=partialRectangle;overflow=hidden;connectable=0;fillColor=none;top=0;left=0;bottom=0;right=0;align=left;spacingLeft=6;fontSize=12;" vertex="1" parent="5KN0nuKQ1v9Bi-ClYZpO-21"><mxGeometry x="30" width="220" height="30" as="geometry"/></mxCell><mxCell id="5KN0nuKQ1v9Bi-ClYZpO-68" value="" style="edgeStyle=orthogonalEdgeStyle;fontSize=12;html=1;endArrow=ERmandOne;startArrow=ERmandOne;" edge="1" parent="5KN0nuKQ1v9Bi-ClYZpO-1" source="5KN0nuKQ1v9Bi-ClYZpO-21" target="5KN0nuKQ1v9Bi-ClYZpO-47"><mxGeometry width="100" height="100" relative="1" as="geometry"><mxPoint x="300" y="270" as="sourcePoint"/><mxPoint x="400" y="170" as="targetPoint"/></mxGeometry></mxCell><mxCell id="5KN0nuKQ1v9Bi-ClYZpO-103" value="Setor" style="shape=table;startSize=30;container=1;collapsible=1;childLayout=tableLayout;fixedRows=1;rowLines=0;fontStyle=1;align=center;resizeLast=1;" vertex="1" parent="5KN0nuKQ1v9Bi-ClYZpO-1"><mxGeometry x="390" y="50" width="220" height="100" as="geometry"/></mxCell><mxCell id="5KN0nuKQ1v9Bi-ClYZpO-104" value="" style="shape=partialRectangle;collapsible=0;dropTarget=0;pointerEvents=0;fillColor=none;top=0;left=0;bottom=1;right=0;points=[[0,0.5],[1,0.5]];portConstraint=eastwest;" vertex="1" parent="5KN0nuKQ1v9Bi-ClYZpO-103"><mxGeometry y="30" width="220" height="30" as="geometry"/></mxCell><mxCell id="5KN0nuKQ1v9Bi-ClYZpO-105" value="PK" style="shape=partialRectangle;connectable=0;fillColor=none;top=0;left=0;bottom=0;right=0;fontStyle=1;overflow=hidden;" vertex="1" parent="5KN0nuKQ1v9Bi-ClYZpO-104"><mxGeometry width="30" height="30" as="geometry"/></mxCell><mxCell id="5KN0nuKQ1v9Bi-ClYZpO-106" value="id int NOT NULL" style="shape=partialRectangle;connectable=0;fillColor=none;top=0;left=0;bottom=0;right=0;align=left;spacingLeft=6;fontStyle=5;overflow=hidden;" vertex="1" parent="5KN0nuKQ1v9Bi-ClYZpO-104"><mxGeometry x="30" width="190" height="30" as="geometry"/></mxCell><mxCell id="5KN0nuKQ1v9Bi-ClYZpO-107" value="" style="shape=partialRectangle;collapsible=0;dropTarget=0;pointerEvents=0;fillColor=none;top=0;left=0;bottom=0;right=0;points=[[0,0.5],[1,0.5]];portConstraint=eastwest;" vertex="1" parent="5KN0nuKQ1v9Bi-ClYZpO-103"><mxGeometry y="60" width="220" height="30" as="geometry"/></mxCell><mxCell id="5KN0nuKQ1v9Bi-ClYZpO-108" value="" style="shape=partialRectangle;connectable=0;fillColor=none;top=0;left=0;bottom=0;right=0;editable=1;overflow=hidden;" vertex="1" parent="5KN0nuKQ1v9Bi-ClYZpO-107"><mxGeometry width="30" height="30" as="geometry"/></mxCell><mxCell id="5KN0nuKQ1v9Bi-ClYZpO-109" value="nome varchar(50) NOT NULL" style="shape=partialRectangle;connectable=0;fillColor=none;top=0;left=0;bottom=0;right=0;align=left;spacingLeft=6;overflow=hidden;" vertex="1" parent="5KN0nuKQ1v9Bi-ClYZpO-107"><mxGeometry x="30" width="190" height="30" as="geometry"/></mxCell><mxCell id="5KN0nuKQ1v9Bi-ClYZpO-135" value="Estoque" style="shape=table;startSize=30;container=1;collapsible=1;childLayout=tableLayout;fixedRows=1;rowLines=0;fontStyle=1;align=center;resizeLast=1;" vertex="1" parent="5KN0nuKQ1v9Bi-ClYZpO-1"><mxGeometry x="1230" y="35" width="260" height="130" as="geometry"/></mxCell><mxCell id="5KN0nuKQ1v9Bi-ClYZpO-136" value="" style="shape=partialRectangle;collapsible=0;dropTarget=0;pointerEvents=0;fillColor=none;top=0;left=0;bottom=1;right=0;points=[[0,0.5],[1,0.5]];portConstraint=eastwest;" vertex="1" parent="5KN0nuKQ1v9Bi-ClYZpO-135"><mxGeometry y="30" width="260" height="30" as="geometry"/></mxCell><mxCell id="5KN0nuKQ1v9Bi-ClYZpO-137" value="PK" style="shape=partialRectangle;connectable=0;fillColor=none;top=0;left=0;bottom=0;right=0;fontStyle=1;overflow=hidden;" vertex="1" parent="5KN0nuKQ1v9Bi-ClYZpO-136"><mxGeometry width="30" height="30" as="geometry"/></mxCell><mxCell id="5KN0nuKQ1v9Bi-ClYZpO-138" value="id int NOT NULL" style="shape=partialRectangle;connectable=0;fillColor=none;top=0;left=0;bottom=0;right=0;align=left;spacingLeft=6;fontStyle=5;overflow=hidden;" vertex="1" parent="5KN0nuKQ1v9Bi-ClYZpO-136"><mxGeometry x="30" width="230" height="30" as="geometry"/></mxCell><mxCell id="5KN0nuKQ1v9Bi-ClYZpO-139" value="" style="shape=partialRectangle;collapsible=0;dropTarget=0;pointerEvents=0;fillColor=none;top=0;left=0;bottom=0;right=0;points=[[0,0.5],[1,0.5]];portConstraint=eastwest;" vertex="1" parent="5KN0nuKQ1v9Bi-ClYZpO-135"><mxGeometry y="60" width="260" height="30" as="geometry"/></mxCell><mxCell id="5KN0nuKQ1v9Bi-ClYZpO-140" value="FK" style="shape=partialRectangle;connectable=0;fillColor=none;top=0;left=0;bottom=0;right=0;editable=1;overflow=hidden;" vertex="1" parent="5KN0nuKQ1v9Bi-ClYZpO-139"><mxGeometry width="30" height="30" as="geometry"/></mxCell><mxCell id="5KN0nuKQ1v9Bi-ClYZpO-141" value="produto_fk int NOT NULL" style="shape=partialRectangle;connectable=0;fillColor=none;top=0;left=0;bottom=0;right=0;align=left;spacingLeft=6;overflow=hidden;" vertex="1" parent="5KN0nuKQ1v9Bi-ClYZpO-139"><mxGeometry x="30" width="230" height="30" as="geometry"/></mxCell><mxCell id="5KN0nuKQ1v9Bi-ClYZpO-142" value="" style="shape=partialRectangle;collapsible=0;dropTarget=0;pointerEvents=0;fillColor=none;top=0;left=0;bottom=0;right=0;points=[[0,0.5],[1,0.5]];portConstraint=eastwest;" vertex="1" parent="5KN0nuKQ1v9Bi-ClYZpO-135"><mxGeometry y="90" width="260" height="30" as="geometry"/></mxCell><mxCell id="5KN0nuKQ1v9Bi-ClYZpO-143" value="" style="shape=partialRectangle;connectable=0;fillColor=none;top=0;left=0;bottom=0;right=0;editable=1;overflow=hidden;" vertex="1" parent="5KN0nuKQ1v9Bi-ClYZpO-142"><mxGeometry width="30" height="30" as="geometry"/></mxCell><mxCell id="5KN0nuKQ1v9Bi-ClYZpO-144" value="quantidade decimal(10,2) NOT NULL" style="shape=partialRectangle;connectable=0;fillColor=none;top=0;left=0;bottom=0;right=0;align=left;spacingLeft=6;overflow=hidden;" vertex="1" parent="5KN0nuKQ1v9Bi-ClYZpO-142"><mxGeometry x="30" width="230" height="30" as="geometry"/></mxCell><mxCell id="5KN0nuKQ1v9Bi-ClYZpO-24" value="Produto" style="shape=table;startSize=30;container=1;collapsible=1;childLayout=tableLayout;fixedRows=1;rowLines=0;fontStyle=1;align=center;resizeLast=1;fontSize=12;" vertex="1" parent="5KN0nuKQ1v9Bi-ClYZpO-1"><mxGeometry x="820" y="70" width="290" height="180" as="geometry"/></mxCell><mxCell id="5KN0nuKQ1v9Bi-ClYZpO-25" value="" style="shape=partialRectangle;collapsible=0;dropTarget=0;pointerEvents=0;fillColor=none;points=[[0,0.5],[1,0.5]];portConstraint=eastwest;top=0;left=0;right=0;bottom=1;fontSize=12;" vertex="1" parent="5KN0nuKQ1v9Bi-ClYZpO-24"><mxGeometry y="30" width="290" height="30" as="geometry"/></mxCell><mxCell id="5KN0nuKQ1v9Bi-ClYZpO-26" value="PK" style="shape=partialRectangle;overflow=hidden;connectable=0;fillColor=none;top=0;left=0;bottom=0;right=0;fontStyle=1;fontSize=12;" vertex="1" parent="5KN0nuKQ1v9Bi-ClYZpO-25"><mxGeometry width="30" height="30" as="geometry"/></mxCell><mxCell id="5KN0nuKQ1v9Bi-ClYZpO-27" value="id int NOT NULL " style="shape=partialRectangle;overflow=hidden;connectable=0;fillColor=none;top=0;left=0;bottom=0;right=0;align=left;spacingLeft=6;fontStyle=5;fontSize=12;" vertex="1" parent="5KN0nuKQ1v9Bi-ClYZpO-25"><mxGeometry x="30" width="260" height="30" as="geometry"/></mxCell><mxCell id="5KN0nuKQ1v9Bi-ClYZpO-28" value="" style="shape=partialRectangle;collapsible=0;dropTarget=0;pointerEvents=0;fillColor=none;points=[[0,0.5],[1,0.5]];portConstraint=eastwest;top=0;left=0;right=0;bottom=0;fontSize=12;" vertex="1" parent="5KN0nuKQ1v9Bi-ClYZpO-24"><mxGeometry y="60" width="290" height="30" as="geometry"/></mxCell><mxCell id="5KN0nuKQ1v9Bi-ClYZpO-29" value="" style="shape=partialRectangle;overflow=hidden;connectable=0;fillColor=none;top=0;left=0;bottom=0;right=0;fontSize=12;" vertex="1" parent="5KN0nuKQ1v9Bi-ClYZpO-28"><mxGeometry width="30" height="30" as="geometry"/></mxCell><mxCell id="5KN0nuKQ1v9Bi-ClYZpO-30" value="nome varchar(50) NOT NULL" style="shape=partialRectangle;overflow=hidden;connectable=0;fillColor=none;top=0;left=0;bottom=0;right=0;align=left;spacingLeft=6;fontSize=12;" vertex="1" parent="5KN0nuKQ1v9Bi-ClYZpO-28"><mxGeometry x="30" width="260" height="30" as="geometry"/></mxCell><mxCell id="5KN0nuKQ1v9Bi-ClYZpO-31" value="" style="shape=partialRectangle;collapsible=0;dropTarget=0;pointerEvents=0;fillColor=none;points=[[0,0.5],[1,0.5]];portConstraint=eastwest;top=0;left=0;right=0;bottom=0;fontSize=12;" vertex="1" parent="5KN0nuKQ1v9Bi-ClYZpO-24"><mxGeometry y="90" width="290" height="30" as="geometry"/></mxCell><mxCell id="5KN0nuKQ1v9Bi-ClYZpO-32" value="FK" style="shape=partialRectangle;overflow=hidden;connectable=0;fillColor=none;top=0;left=0;bottom=0;right=0;fontSize=12;" vertex="1" parent="5KN0nuKQ1v9Bi-ClYZpO-31"><mxGeometry width="30" height="30" as="geometry"/></mxCell><mxCell id="5KN0nuKQ1v9Bi-ClYZpO-33" value="setor_fk int NOT NULL" style="shape=partialRectangle;overflow=hidden;connectable=0;fillColor=none;top=0;left=0;bottom=0;right=0;align=left;spacingLeft=6;fontSize=12;" vertex="1" parent="5KN0nuKQ1v9Bi-ClYZpO-31"><mxGeometry x="30" width="260" height="30" as="geometry"/></mxCell><mxCell id="5KN0nuKQ1v9Bi-ClYZpO-37" value="" style="shape=partialRectangle;collapsible=0;dropTarget=0;pointerEvents=0;fillColor=none;points=[[0,0.5],[1,0.5]];portConstraint=eastwest;top=0;left=0;right=0;bottom=0;fontSize=12;" vertex="1" parent="5KN0nuKQ1v9Bi-ClYZpO-24"><mxGeometry y="120" width="290" height="30" as="geometry"/></mxCell><mxCell id="5KN0nuKQ1v9Bi-ClYZpO-38" value="FK" style="shape=partialRectangle;overflow=hidden;connectable=0;fillColor=none;top=0;left=0;bottom=0;right=0;fontSize=12;" vertex="1" parent="5KN0nuKQ1v9Bi-ClYZpO-37"><mxGeometry width="30" height="30" as="geometry"/></mxCell><mxCell id="5KN0nuKQ1v9Bi-ClYZpO-39" value="unidade_medida_fk int NOT NULL" style="shape=partialRectangle;overflow=hidden;connectable=0;fillColor=none;top=0;left=0;bottom=0;right=0;align=left;spacingLeft=6;fontSize=12;" vertex="1" parent="5KN0nuKQ1v9Bi-ClYZpO-37"><mxGeometry x="30" width="260" height="30" as="geometry"/></mxCell><mxCell id="5KN0nuKQ1v9Bi-ClYZpO-40" value="" style="shape=partialRectangle;collapsible=0;dropTarget=0;pointerEvents=0;fillColor=none;points=[[0,0.5],[1,0.5]];portConstraint=eastwest;top=0;left=0;right=0;bottom=0;fontSize=12;" vertex="1" parent="5KN0nuKQ1v9Bi-ClYZpO-24"><mxGeometry y="150" width="290" height="30" as="geometry"/></mxCell><mxCell id="5KN0nuKQ1v9Bi-ClYZpO-41" value="" style="shape=partialRectangle;overflow=hidden;connectable=0;fillColor=none;top=0;left=0;bottom=0;right=0;fontSize=12;" vertex="1" parent="5KN0nuKQ1v9Bi-ClYZpO-40"><mxGeometry width="30" height="30" as="geometry"/></mxCell><mxCell id="5KN0nuKQ1v9Bi-ClYZpO-42" value="vencimento date NOT NULL" style="shape=partialRectangle;overflow=hidden;connectable=0;fillColor=none;top=0;left=0;bottom=0;right=0;align=left;spacingLeft=6;fontSize=12;" vertex="1" parent="5KN0nuKQ1v9Bi-ClYZpO-40"><mxGeometry x="30" width="260" height="30" as="geometry"/></mxCell><mxCell id="5KN0nuKQ1v9Bi-ClYZpO-69" value="Cidade" style="shape=table;startSize=30;container=1;collapsible=1;childLayout=tableLayout;fixedRows=1;rowLines=0;fontStyle=1;align=center;resizeLast=1;fontSize=12;" vertex="1" parent="5KN0nuKQ1v9Bi-ClYZpO-1"><mxGeometry x="10" y="510" width="250" height="120" as="geometry"/></mxCell><mxCell id="5KN0nuKQ1v9Bi-ClYZpO-70" value="" style="shape=partialRectangle;collapsible=0;dropTarget=0;pointerEvents=0;fillColor=none;points=[[0,0.5],[1,0.5]];portConstraint=eastwest;top=0;left=0;right=0;bottom=1;fontSize=12;" vertex="1" parent="5KN0nuKQ1v9Bi-ClYZpO-69"><mxGeometry y="30" width="250" height="30" as="geometry"/></mxCell><mxCell id="5KN0nuKQ1v9Bi-ClYZpO-71" value="PK" style="shape=partialRectangle;overflow=hidden;connectable=0;fillColor=none;top=0;left=0;bottom=0;right=0;fontStyle=1;fontSize=12;" vertex="1" parent="5KN0nuKQ1v9Bi-ClYZpO-70"><mxGeometry width="30" height="30" as="geometry"/></mxCell><mxCell id="5KN0nuKQ1v9Bi-ClYZpO-72" value="id int NOT NULL " style="shape=partialRectangle;overflow=hidden;connectable=0;fillColor=none;top=0;left=0;bottom=0;right=0;align=left;spacingLeft=6;fontStyle=5;fontSize=12;" vertex="1" parent="5KN0nuKQ1v9Bi-ClYZpO-70"><mxGeometry x="30" width="220" height="30" as="geometry"/></mxCell><mxCell id="5KN0nuKQ1v9Bi-ClYZpO-73" value="" style="shape=partialRectangle;collapsible=0;dropTarget=0;pointerEvents=0;fillColor=none;points=[[0,0.5],[1,0.5]];portConstraint=eastwest;top=0;left=0;right=0;bottom=0;fontSize=12;" vertex="1" parent="5KN0nuKQ1v9Bi-ClYZpO-69"><mxGeometry y="60" width="250" height="30" as="geometry"/></mxCell><mxCell id="5KN0nuKQ1v9Bi-ClYZpO-74" value="" style="shape=partialRectangle;overflow=hidden;connectable=0;fillColor=none;top=0;left=0;bottom=0;right=0;fontSize=12;" vertex="1" parent="5KN0nuKQ1v9Bi-ClYZpO-73"><mxGeometry width="30" height="30" as="geometry"/></mxCell><mxCell id="5KN0nuKQ1v9Bi-ClYZpO-75" value="nome varchar(100) NOT NULL" style="shape=partialRectangle;overflow=hidden;connectable=0;fillColor=none;top=0;left=0;bottom=0;right=0;align=left;spacingLeft=6;fontSize=12;" vertex="1" parent="5KN0nuKQ1v9Bi-ClYZpO-73"><mxGeometry x="30" width="220" height="30" as="geometry"/></mxCell><mxCell id="5KN0nuKQ1v9Bi-ClYZpO-76" value="" style="shape=partialRectangle;collapsible=0;dropTarget=0;pointerEvents=0;fillColor=none;points=[[0,0.5],[1,0.5]];portConstraint=eastwest;top=0;left=0;right=0;bottom=0;fontSize=12;" vertex="1" parent="5KN0nuKQ1v9Bi-ClYZpO-69"><mxGeometry y="90" width="250" height="30" as="geometry"/></mxCell><mxCell id="5KN0nuKQ1v9Bi-ClYZpO-77" value="FK" style="shape=partialRectangle;overflow=hidden;connectable=0;fillColor=none;top=0;left=0;bottom=0;right=0;fontSize=12;" vertex="1" parent="5KN0nuKQ1v9Bi-ClYZpO-76"><mxGeometry width="30" height="30" as="geometry"/></mxCell><mxCell id="5KN0nuKQ1v9Bi-ClYZpO-78" value="estado_fk int NOT NULL" style="shape=partialRectangle;overflow=hidden;connectable=0;fillColor=none;top=0;left=0;bottom=0;right=0;align=left;spacingLeft=6;fontSize=12;" vertex="1" parent="5KN0nuKQ1v9Bi-ClYZpO-76"><mxGeometry x="30" width="220" height="30" as="geometry"/></mxCell><mxCell id="5KN0nuKQ1v9Bi-ClYZpO-91" value="" style="edgeStyle=orthogonalEdgeStyle;fontSize=12;html=1;endArrow=ERoneToMany;exitX=1;exitY=0.5;exitDx=0;exitDy=0;entryX=0;entryY=0.5;entryDx=0;entryDy=0;" edge="1" parent="5KN0nuKQ1v9Bi-ClYZpO-1" source="5KN0nuKQ1v9Bi-ClYZpO-70" target="5KN0nuKQ1v9Bi-ClYZpO-65"><mxGeometry width="100" height="100" relative="1" as="geometry"><mxPoint x="300" y="560" as="sourcePoint"/><mxPoint x="400" y="460" as="targetPoint"/></mxGeometry></mxCell><mxCell id="5KN0nuKQ1v9Bi-ClYZpO-102" value="" style="edgeStyle=orthogonalEdgeStyle;fontSize=12;html=1;endArrow=ERmandOne;" edge="1" parent="5KN0nuKQ1v9Bi-ClYZpO-1" source="5KN0nuKQ1v9Bi-ClYZpO-93" target="5KN0nuKQ1v9Bi-ClYZpO-76"><mxGeometry width="100" height="100" relative="1" as="geometry"><mxPoint x="300" y="640" as="sourcePoint"/><mxPoint x="400" y="540" as="targetPoint"/></mxGeometry></mxCell><mxCell id="5KN0nuKQ1v9Bi-ClYZpO-46" value="Endereco" style="shape=table;startSize=30;container=1;collapsible=1;childLayout=tableLayout;fixedRows=1;rowLines=0;fontStyle=1;align=center;resizeLast=1;fontSize=12;" vertex="1" parent="5KN0nuKQ1v9Bi-ClYZpO-1"><mxGeometry x="350" y="310" width="250" height="250" as="geometry"/></mxCell><mxCell id="5KN0nuKQ1v9Bi-ClYZpO-47" value="" style="shape=partialRectangle;collapsible=0;dropTarget=0;pointerEvents=0;fillColor=none;points=[[0,0.5],[1,0.5]];portConstraint=eastwest;top=0;left=0;right=0;bottom=1;fontSize=12;" vertex="1" parent="5KN0nuKQ1v9Bi-ClYZpO-46"><mxGeometry y="30" width="250" height="30" as="geometry"/></mxCell><mxCell id="5KN0nuKQ1v9Bi-ClYZpO-48" value="PK" style="shape=partialRectangle;overflow=hidden;connectable=0;fillColor=none;top=0;left=0;bottom=0;right=0;fontStyle=1;fontSize=12;" vertex="1" parent="5KN0nuKQ1v9Bi-ClYZpO-47"><mxGeometry width="30" height="30" as="geometry"/></mxCell><mxCell id="5KN0nuKQ1v9Bi-ClYZpO-49" value="id int NOT NULL " style="shape=partialRectangle;overflow=hidden;connectable=0;fillColor=none;top=0;left=0;bottom=0;right=0;align=left;spacingLeft=6;fontStyle=5;fontSize=12;" vertex="1" parent="5KN0nuKQ1v9Bi-ClYZpO-47"><mxGeometry x="30" width="220" height="30" as="geometry"/></mxCell><mxCell id="5KN0nuKQ1v9Bi-ClYZpO-50" value="" style="shape=partialRectangle;collapsible=0;dropTarget=0;pointerEvents=0;fillColor=none;points=[[0,0.5],[1,0.5]];portConstraint=eastwest;top=0;left=0;right=0;bottom=0;fontSize=12;" vertex="1" parent="5KN0nuKQ1v9Bi-ClYZpO-46"><mxGeometry y="60" width="250" height="30" as="geometry"/></mxCell><mxCell id="5KN0nuKQ1v9Bi-ClYZpO-51" value="" style="shape=partialRectangle;overflow=hidden;connectable=0;fillColor=none;top=0;left=0;bottom=0;right=0;fontSize=12;" vertex="1" parent="5KN0nuKQ1v9Bi-ClYZpO-50"><mxGeometry width="30" height="30" as="geometry"/></mxCell><mxCell id="5KN0nuKQ1v9Bi-ClYZpO-52" value="logradouro varchar(100) NOT NULL" style="shape=partialRectangle;overflow=hidden;connectable=0;fillColor=none;top=0;left=0;bottom=0;right=0;align=left;spacingLeft=6;fontSize=12;" vertex="1" parent="5KN0nuKQ1v9Bi-ClYZpO-50"><mxGeometry x="30" width="220" height="30" as="geometry"/></mxCell><mxCell id="5KN0nuKQ1v9Bi-ClYZpO-53" value="" style="shape=partialRectangle;collapsible=0;dropTarget=0;pointerEvents=0;fillColor=none;points=[[0,0.5],[1,0.5]];portConstraint=eastwest;top=0;left=0;right=0;bottom=0;fontSize=12;" vertex="1" parent="5KN0nuKQ1v9Bi-ClYZpO-46"><mxGeometry y="90" width="250" height="30" as="geometry"/></mxCell><mxCell id="5KN0nuKQ1v9Bi-ClYZpO-54" value="" style="shape=partialRectangle;overflow=hidden;connectable=0;fillColor=none;top=0;left=0;bottom=0;right=0;fontSize=12;" vertex="1" parent="5KN0nuKQ1v9Bi-ClYZpO-53"><mxGeometry width="30" height="30" as="geometry"/></mxCell><mxCell id="5KN0nuKQ1v9Bi-ClYZpO-55" value="numero varchar(5) NOT NULL" style="shape=partialRectangle;overflow=hidden;connectable=0;fillColor=none;top=0;left=0;bottom=0;right=0;align=left;spacingLeft=6;fontSize=12;" vertex="1" parent="5KN0nuKQ1v9Bi-ClYZpO-53"><mxGeometry x="30" width="220" height="30" as="geometry"/></mxCell><mxCell id="5KN0nuKQ1v9Bi-ClYZpO-56" value="" style="shape=partialRectangle;collapsible=0;dropTarget=0;pointerEvents=0;fillColor=none;points=[[0,0.5],[1,0.5]];portConstraint=eastwest;top=0;left=0;right=0;bottom=0;fontSize=12;" vertex="1" parent="5KN0nuKQ1v9Bi-ClYZpO-46"><mxGeometry y="120" width="250" height="40" as="geometry"/></mxCell><mxCell id="5KN0nuKQ1v9Bi-ClYZpO-57" value="" style="shape=partialRectangle;overflow=hidden;connectable=0;fillColor=none;top=0;left=0;bottom=0;right=0;fontSize=12;" vertex="1" parent="5KN0nuKQ1v9Bi-ClYZpO-56"><mxGeometry width="30" height="40" as="geometry"/></mxCell><mxCell id="5KN0nuKQ1v9Bi-ClYZpO-58" value="bairro varchar(30) NOT NULL" style="shape=partialRectangle;overflow=hidden;connectable=0;fillColor=none;top=0;left=0;bottom=0;right=0;align=left;spacingLeft=6;fontSize=12;" vertex="1" parent="5KN0nuKQ1v9Bi-ClYZpO-56"><mxGeometry x="30" width="220" height="40" as="geometry"/></mxCell><mxCell id="5KN0nuKQ1v9Bi-ClYZpO-59" value="" style="shape=partialRectangle;collapsible=0;dropTarget=0;pointerEvents=0;fillColor=none;points=[[0,0.5],[1,0.5]];portConstraint=eastwest;top=0;left=0;right=0;bottom=0;fontSize=12;" vertex="1" parent="5KN0nuKQ1v9Bi-ClYZpO-46"><mxGeometry y="160" width="250" height="30" as="geometry"/></mxCell><mxCell id="5KN0nuKQ1v9Bi-ClYZpO-60" value="" style="shape=partialRectangle;overflow=hidden;connectable=0;fillColor=none;top=0;left=0;bottom=0;right=0;fontSize=12;" vertex="1" parent="5KN0nuKQ1v9Bi-ClYZpO-59"><mxGeometry width="30" height="30" as="geometry"/></mxCell><mxCell id="5KN0nuKQ1v9Bi-ClYZpO-61" value="cep varchar(8) NOT NULL" style="shape=partialRectangle;overflow=hidden;connectable=0;fillColor=none;top=0;left=0;bottom=0;right=0;align=left;spacingLeft=6;fontSize=12;" vertex="1" parent="5KN0nuKQ1v9Bi-ClYZpO-59"><mxGeometry x="30" width="220" height="30" as="geometry"/></mxCell><mxCell id="5KN0nuKQ1v9Bi-ClYZpO-62" value="" style="shape=partialRectangle;collapsible=0;dropTarget=0;pointerEvents=0;fillColor=none;points=[[0,0.5],[1,0.5]];portConstraint=eastwest;top=0;left=0;right=0;bottom=0;fontSize=12;" vertex="1" parent="5KN0nuKQ1v9Bi-ClYZpO-46"><mxGeometry y="190" width="250" height="30" as="geometry"/></mxCell><mxCell id="5KN0nuKQ1v9Bi-ClYZpO-63" value="" style="shape=partialRectangle;overflow=hidden;connectable=0;fillColor=none;top=0;left=0;bottom=0;right=0;fontSize=12;" vertex="1" parent="5KN0nuKQ1v9Bi-ClYZpO-62"><mxGeometry width="30" height="30" as="geometry"/></mxCell><mxCell id="5KN0nuKQ1v9Bi-ClYZpO-64" value="complemento varchar(50) NULL" style="shape=partialRectangle;overflow=hidden;connectable=0;fillColor=none;top=0;left=0;bottom=0;right=0;align=left;spacingLeft=6;fontSize=12;" vertex="1" parent="5KN0nuKQ1v9Bi-ClYZpO-62"><mxGeometry x="30" width="220" height="30" as="geometry"/></mxCell><mxCell id="5KN0nuKQ1v9Bi-ClYZpO-65" value="" style="shape=partialRectangle;collapsible=0;dropTarget=0;pointerEvents=0;fillColor=none;points=[[0,0.5],[1,0.5]];portConstraint=eastwest;top=0;left=0;right=0;bottom=0;fontSize=12;" vertex="1" parent="5KN0nuKQ1v9Bi-ClYZpO-46"><mxGeometry y="220" width="250" height="30" as="geometry"/></mxCell><mxCell id="5KN0nuKQ1v9Bi-ClYZpO-66" value="FK" style="shape=partialRectangle;overflow=hidden;connectable=0;fillColor=none;top=0;left=0;bottom=0;right=0;fontSize=12;" vertex="1" parent="5KN0nuKQ1v9Bi-ClYZpO-65"><mxGeometry width="30" height="30" as="geometry"/></mxCell><mxCell id="5KN0nuKQ1v9Bi-ClYZpO-67" value="cidade_fk int NOT NULL" style="shape=partialRectangle;overflow=hidden;connectable=0;fillColor=none;top=0;left=0;bottom=0;right=0;align=left;spacingLeft=6;fontSize=12;" vertex="1" parent="5KN0nuKQ1v9Bi-ClYZpO-65"><mxGeometry x="30" width="220" height="30" as="geometry"/></mxCell><mxCell id="5KN0nuKQ1v9Bi-ClYZpO-92" value="Estado" style="shape=table;startSize=30;container=1;collapsible=1;childLayout=tableLayout;fixedRows=1;rowLines=0;fontStyle=1;align=center;resizeLast=1;fontSize=12;" vertex="1" parent="5KN0nuKQ1v9Bi-ClYZpO-1"><mxGeometry x="310" y="680" width="250" height="90" as="geometry"/></mxCell><mxCell id="5KN0nuKQ1v9Bi-ClYZpO-93" value="" style="shape=partialRectangle;collapsible=0;dropTarget=0;pointerEvents=0;fillColor=none;points=[[0,0.5],[1,0.5]];portConstraint=eastwest;top=0;left=0;right=0;bottom=1;fontSize=12;" vertex="1" parent="5KN0nuKQ1v9Bi-ClYZpO-92"><mxGeometry y="30" width="250" height="30" as="geometry"/></mxCell><mxCell id="5KN0nuKQ1v9Bi-ClYZpO-94" value="PK" style="shape=partialRectangle;overflow=hidden;connectable=0;fillColor=none;top=0;left=0;bottom=0;right=0;fontStyle=1;fontSize=12;" vertex="1" parent="5KN0nuKQ1v9Bi-ClYZpO-93"><mxGeometry width="30" height="30" as="geometry"/></mxCell><mxCell id="5KN0nuKQ1v9Bi-ClYZpO-95" value="id int NOT NULL " style="shape=partialRectangle;overflow=hidden;connectable=0;fillColor=none;top=0;left=0;bottom=0;right=0;align=left;spacingLeft=6;fontStyle=5;fontSize=12;" vertex="1" parent="5KN0nuKQ1v9Bi-ClYZpO-93"><mxGeometry x="30" width="220" height="30" as="geometry"/></mxCell><mxCell id="5KN0nuKQ1v9Bi-ClYZpO-96" value="" style="shape=partialRectangle;collapsible=0;dropTarget=0;pointerEvents=0;fillColor=none;points=[[0,0.5],[1,0.5]];portConstraint=eastwest;top=0;left=0;right=0;bottom=0;fontSize=12;" vertex="1" parent="5KN0nuKQ1v9Bi-ClYZpO-92"><mxGeometry y="60" width="250" height="30" as="geometry"/></mxCell><mxCell id="5KN0nuKQ1v9Bi-ClYZpO-97" value="" style="shape=partialRectangle;overflow=hidden;connectable=0;fillColor=none;top=0;left=0;bottom=0;right=0;fontSize=12;" vertex="1" parent="5KN0nuKQ1v9Bi-ClYZpO-96"><mxGeometry width="30" height="30" as="geometry"/></mxCell><mxCell id="5KN0nuKQ1v9Bi-ClYZpO-98" value="nome varchar(100) NOT NULL" style="shape=partialRectangle;overflow=hidden;connectable=0;fillColor=none;top=0;left=0;bottom=0;right=0;align=left;spacingLeft=6;fontSize=12;" vertex="1" parent="5KN0nuKQ1v9Bi-ClYZpO-96"><mxGeometry x="30" width="220" height="30" as="geometry"/></mxCell><mxCell id="5KN0nuKQ1v9Bi-ClYZpO-116" value="" style="edgeStyle=entityRelationEdgeStyle;fontSize=12;html=1;endArrow=ERoneToMany;exitX=1;exitY=0.5;exitDx=0;exitDy=0;entryX=0;entryY=0.5;entryDx=0;entryDy=0;" edge="1" parent="5KN0nuKQ1v9Bi-ClYZpO-1" source="5KN0nuKQ1v9Bi-ClYZpO-104" target="5KN0nuKQ1v9Bi-ClYZpO-31"><mxGeometry width="100" height="100" relative="1" as="geometry"><mxPoint x="830" y="310" as="sourcePoint"/><mxPoint x="930" y="210" as="targetPoint"/></mxGeometry></mxCell><mxCell id="5KN0nuKQ1v9Bi-ClYZpO-134" value="" style="edgeStyle=entityRelationEdgeStyle;fontSize=12;html=1;endArrow=ERoneToMany;" edge="1" parent="5KN0nuKQ1v9Bi-ClYZpO-1" source="5KN0nuKQ1v9Bi-ClYZpO-118" target="5KN0nuKQ1v9Bi-ClYZpO-37"><mxGeometry width="100" height="100" relative="1" as="geometry"><mxPoint x="830" y="310" as="sourcePoint"/><mxPoint x="930" y="210" as="targetPoint"/></mxGeometry></mxCell><mxCell id="5KN0nuKQ1v9Bi-ClYZpO-117" value="UnidadeMedida" style="shape=table;startSize=30;container=1;collapsible=1;childLayout=tableLayout;fixedRows=1;rowLines=0;fontStyle=1;align=center;resizeLast=1;" vertex="1" parent="5KN0nuKQ1v9Bi-ClYZpO-1"><mxGeometry x="1240" y="260" width="220" height="130" as="geometry"/></mxCell><mxCell id="5KN0nuKQ1v9Bi-ClYZpO-118" value="" style="shape=partialRectangle;collapsible=0;dropTarget=0;pointerEvents=0;fillColor=none;top=0;left=0;bottom=1;right=0;points=[[0,0.5],[1,0.5]];portConstraint=eastwest;" vertex="1" parent="5KN0nuKQ1v9Bi-ClYZpO-117"><mxGeometry y="30" width="220" height="30" as="geometry"/></mxCell><mxCell id="5KN0nuKQ1v9Bi-ClYZpO-119" value="PK" style="shape=partialRectangle;connectable=0;fillColor=none;top=0;left=0;bottom=0;right=0;fontStyle=1;overflow=hidden;" vertex="1" parent="5KN0nuKQ1v9Bi-ClYZpO-118"><mxGeometry width="30" height="30" as="geometry"/></mxCell><mxCell id="5KN0nuKQ1v9Bi-ClYZpO-120" value="id int NOT NULL" style="shape=partialRectangle;connectable=0;fillColor=none;top=0;left=0;bottom=0;right=0;align=left;spacingLeft=6;fontStyle=5;overflow=hidden;" vertex="1" parent="5KN0nuKQ1v9Bi-ClYZpO-118"><mxGeometry x="30" width="190" height="30" as="geometry"/></mxCell><mxCell id="5KN0nuKQ1v9Bi-ClYZpO-121" value="" style="shape=partialRectangle;collapsible=0;dropTarget=0;pointerEvents=0;fillColor=none;top=0;left=0;bottom=0;right=0;points=[[0,0.5],[1,0.5]];portConstraint=eastwest;" vertex="1" parent="5KN0nuKQ1v9Bi-ClYZpO-117"><mxGeometry y="60" width="220" height="30" as="geometry"/></mxCell><mxCell id="5KN0nuKQ1v9Bi-ClYZpO-122" value="" style="shape=partialRectangle;connectable=0;fillColor=none;top=0;left=0;bottom=0;right=0;editable=1;overflow=hidden;" vertex="1" parent="5KN0nuKQ1v9Bi-ClYZpO-121"><mxGeometry width="30" height="30" as="geometry"/></mxCell><mxCell id="5KN0nuKQ1v9Bi-ClYZpO-123" value="nome varchar(50) NOT NULL" style="shape=partialRectangle;connectable=0;fillColor=none;top=0;left=0;bottom=0;right=0;align=left;spacingLeft=6;overflow=hidden;" vertex="1" parent="5KN0nuKQ1v9Bi-ClYZpO-121"><mxGeometry x="30" width="190" height="30" as="geometry"/></mxCell><mxCell id="5KN0nuKQ1v9Bi-ClYZpO-131" value="" style="shape=partialRectangle;collapsible=0;dropTarget=0;pointerEvents=0;fillColor=none;top=0;left=0;bottom=0;right=0;points=[[0,0.5],[1,0.5]];portConstraint=eastwest;" vertex="1" parent="5KN0nuKQ1v9Bi-ClYZpO-117"><mxGeometry y="90" width="220" height="30" as="geometry"/></mxCell><mxCell id="5KN0nuKQ1v9Bi-ClYZpO-132" value="" style="shape=partialRectangle;connectable=0;fillColor=none;top=0;left=0;bottom=0;right=0;editable=1;overflow=hidden;" vertex="1" parent="5KN0nuKQ1v9Bi-ClYZpO-131"><mxGeometry width="30" height="30" as="geometry"/></mxCell><mxCell id="5KN0nuKQ1v9Bi-ClYZpO-133" value="sigla varchar(4) NOT NULL" style="shape=partialRectangle;connectable=0;fillColor=none;top=0;left=0;bottom=0;right=0;align=left;spacingLeft=6;overflow=hidden;" vertex="1" parent="5KN0nuKQ1v9Bi-ClYZpO-131"><mxGeometry x="30" width="190" height="30" as="geometry"/></mxCell><mxCell id="5KN0nuKQ1v9Bi-ClYZpO-145" value="" style="edgeStyle=entityRelationEdgeStyle;fontSize=12;html=1;endArrow=ERmandOne;startArrow=ERmandOne;exitX=1;exitY=0.5;exitDx=0;exitDy=0;entryX=0;entryY=0.5;entryDx=0;entryDy=0;" edge="1" parent="5KN0nuKQ1v9Bi-ClYZpO-1" source="5KN0nuKQ1v9Bi-ClYZpO-25" target="5KN0nuKQ1v9Bi-ClYZpO-139"><mxGeometry width="100" height="100" relative="1" as="geometry"><mxPoint x="1060" y="250" as="sourcePoint"/><mxPoint x="1160" y="150" as="targetPoint"/></mxGeometry></mxCell><mxCell id="5KN0nuKQ1v9Bi-ClYZpO-159" value="" style="edgeStyle=orthogonalEdgeStyle;fontSize=12;html=1;endArrow=ERmandOne;startArrow=ERmandOne;exitX=1;exitY=0.5;exitDx=0;exitDy=0;entryX=0;entryY=0.5;entryDx=0;entryDy=0;" edge="1" parent="5KN0nuKQ1v9Bi-ClYZpO-1" source="5KN0nuKQ1v9Bi-ClYZpO-47" target="5KN0nuKQ1v9Bi-ClYZpO-156"><mxGeometry width="100" height="100" relative="1" as="geometry"><mxPoint x="760" y="410" as="sourcePoint"/><mxPoint x="860" y="310" as="targetPoint"/><Array as="points"><mxPoint x="700" y="355"/><mxPoint x="700" y="625"/></Array></mxGeometry></mxCell><mxCell id="5KN0nuKQ1v9Bi-ClYZpO-173" value="" style="edgeStyle=orthogonalEdgeStyle;fontSize=12;html=1;endArrow=ERoneToMany;exitX=0;exitY=0.5;exitDx=0;exitDy=0;entryX=0;entryY=0.5;entryDx=0;entryDy=0;" edge="1" parent="5KN0nuKQ1v9Bi-ClYZpO-1" source="5KN0nuKQ1v9Bi-ClYZpO-25" target="5KN0nuKQ1v9Bi-ClYZpO-161"><mxGeometry width="100" height="100" relative="1" as="geometry"><mxPoint x="760" y="410" as="sourcePoint"/><mxPoint x="860" y="310" as="targetPoint"/><Array as="points"><mxPoint x="750" y="115"/><mxPoint x="750" y="345"/></Array></mxGeometry></mxCell><mxCell id="5KN0nuKQ1v9Bi-ClYZpO-174" value="" style="edgeStyle=entityRelationEdgeStyle;fontSize=12;html=1;endArrow=ERoneToMany;entryX=0;entryY=0.5;entryDx=0;entryDy=0;" edge="1" parent="5KN0nuKQ1v9Bi-ClYZpO-1" source="5KN0nuKQ1v9Bi-ClYZpO-147" target="5KN0nuKQ1v9Bi-ClYZpO-164"><mxGeometry width="100" height="100" relative="1" as="geometry"><mxPoint x="830" y="530" as="sourcePoint"/><mxPoint x="930" y="430" as="targetPoint"/></mxGeometry></mxCell><mxCell id="5KN0nuKQ1v9Bi-ClYZpO-146" value="Fornecedor" style="shape=table;startSize=30;container=1;collapsible=1;childLayout=tableLayout;fixedRows=1;rowLines=0;fontStyle=1;align=center;resizeLast=1;" vertex="1" parent="5KN0nuKQ1v9Bi-ClYZpO-1"><mxGeometry x="1140" y="530" width="250" height="160" as="geometry"/></mxCell><mxCell id="5KN0nuKQ1v9Bi-ClYZpO-147" value="" style="shape=partialRectangle;collapsible=0;dropTarget=0;pointerEvents=0;fillColor=none;top=0;left=0;bottom=1;right=0;points=[[0,0.5],[1,0.5]];portConstraint=eastwest;" vertex="1" parent="5KN0nuKQ1v9Bi-ClYZpO-146"><mxGeometry y="30" width="250" height="30" as="geometry"/></mxCell><mxCell id="5KN0nuKQ1v9Bi-ClYZpO-148" value="PK" style="shape=partialRectangle;connectable=0;fillColor=none;top=0;left=0;bottom=0;right=0;fontStyle=1;overflow=hidden;" vertex="1" parent="5KN0nuKQ1v9Bi-ClYZpO-147"><mxGeometry width="30" height="30" as="geometry"/></mxCell><mxCell id="5KN0nuKQ1v9Bi-ClYZpO-149" value="id int NOT NULL" style="shape=partialRectangle;connectable=0;fillColor=none;top=0;left=0;bottom=0;right=0;align=left;spacingLeft=6;fontStyle=5;overflow=hidden;" vertex="1" parent="5KN0nuKQ1v9Bi-ClYZpO-147"><mxGeometry x="30" width="220" height="30" as="geometry"/></mxCell><mxCell id="5KN0nuKQ1v9Bi-ClYZpO-150" value="" style="shape=partialRectangle;collapsible=0;dropTarget=0;pointerEvents=0;fillColor=none;top=0;left=0;bottom=0;right=0;points=[[0,0.5],[1,0.5]];portConstraint=eastwest;" vertex="1" parent="5KN0nuKQ1v9Bi-ClYZpO-146"><mxGeometry y="60" width="250" height="30" as="geometry"/></mxCell><mxCell id="5KN0nuKQ1v9Bi-ClYZpO-151" value="" style="shape=partialRectangle;connectable=0;fillColor=none;top=0;left=0;bottom=0;right=0;editable=1;overflow=hidden;" vertex="1" parent="5KN0nuKQ1v9Bi-ClYZpO-150"><mxGeometry width="30" height="30" as="geometry"/></mxCell><mxCell id="5KN0nuKQ1v9Bi-ClYZpO-152" value="nome varchar(100) NOT NULL" style="shape=partialRectangle;connectable=0;fillColor=none;top=0;left=0;bottom=0;right=0;align=left;spacingLeft=6;overflow=hidden;" vertex="1" parent="5KN0nuKQ1v9Bi-ClYZpO-150"><mxGeometry x="30" width="220" height="30" as="geometry"/></mxCell><mxCell id="5KN0nuKQ1v9Bi-ClYZpO-153" value="" style="shape=partialRectangle;collapsible=0;dropTarget=0;pointerEvents=0;fillColor=none;top=0;left=0;bottom=0;right=0;points=[[0,0.5],[1,0.5]];portConstraint=eastwest;" vertex="1" parent="5KN0nuKQ1v9Bi-ClYZpO-146"><mxGeometry y="90" width="250" height="30" as="geometry"/></mxCell><mxCell id="5KN0nuKQ1v9Bi-ClYZpO-154" value="" style="shape=partialRectangle;connectable=0;fillColor=none;top=0;left=0;bottom=0;right=0;editable=1;overflow=hidden;" vertex="1" parent="5KN0nuKQ1v9Bi-ClYZpO-153"><mxGeometry width="30" height="30" as="geometry"/></mxCell><mxCell id="5KN0nuKQ1v9Bi-ClYZpO-155" value="cpf_cnpj varchar (14) NOT NULL" style="shape=partialRectangle;connectable=0;fillColor=none;top=0;left=0;bottom=0;right=0;align=left;spacingLeft=6;overflow=hidden;" vertex="1" parent="5KN0nuKQ1v9Bi-ClYZpO-153"><mxGeometry x="30" width="220" height="30" as="geometry"/></mxCell><mxCell id="5KN0nuKQ1v9Bi-ClYZpO-156" value="" style="shape=partialRectangle;collapsible=0;dropTarget=0;pointerEvents=0;fillColor=none;top=0;left=0;bottom=0;right=0;points=[[0,0.5],[1,0.5]];portConstraint=eastwest;" vertex="1" parent="5KN0nuKQ1v9Bi-ClYZpO-146"><mxGeometry y="120" width="250" height="30" as="geometry"/></mxCell><mxCell id="5KN0nuKQ1v9Bi-ClYZpO-157" value="FK" style="shape=partialRectangle;connectable=0;fillColor=none;top=0;left=0;bottom=0;right=0;editable=1;overflow=hidden;" vertex="1" parent="5KN0nuKQ1v9Bi-ClYZpO-156"><mxGeometry width="30" height="30" as="geometry"/></mxCell><mxCell id="5KN0nuKQ1v9Bi-ClYZpO-158" value="endereco_fk NOT NULL" style="shape=partialRectangle;connectable=0;fillColor=none;top=0;left=0;bottom=0;right=0;align=left;spacingLeft=6;overflow=hidden;" vertex="1" parent="5KN0nuKQ1v9Bi-ClYZpO-156"><mxGeometry x="30" width="220" height="30" as="geometry"/></mxCell><mxCell id="5KN0nuKQ1v9Bi-ClYZpO-160" value="FornecedorProduto" style="shape=table;startSize=30;container=1;collapsible=1;childLayout=tableLayout;fixedRows=1;rowLines=0;fontStyle=1;align=center;resizeLast=1;" vertex="1" parent="5KN0nuKQ1v9Bi-ClYZpO-1"><mxGeometry x="840" y="300" width="300" height="100" as="geometry"/></mxCell><mxCell id="5KN0nuKQ1v9Bi-ClYZpO-161" value="" style="shape=partialRectangle;collapsible=0;dropTarget=0;pointerEvents=0;fillColor=none;top=0;left=0;bottom=0;right=0;points=[[0,0.5],[1,0.5]];portConstraint=eastwest;" vertex="1" parent="5KN0nuKQ1v9Bi-ClYZpO-160"><mxGeometry y="30" width="300" height="30" as="geometry"/></mxCell><mxCell id="5KN0nuKQ1v9Bi-ClYZpO-162" value="PFK" style="shape=partialRectangle;connectable=0;fillColor=none;top=0;left=0;bottom=0;right=0;fontStyle=1;overflow=hidden;" vertex="1" parent="5KN0nuKQ1v9Bi-ClYZpO-161"><mxGeometry width="60" height="30" as="geometry"/></mxCell><mxCell id="5KN0nuKQ1v9Bi-ClYZpO-163" value="produto_fk int NOT NULL" style="shape=partialRectangle;connectable=0;fillColor=none;top=0;left=0;bottom=0;right=0;align=left;spacingLeft=6;fontStyle=5;overflow=hidden;" vertex="1" parent="5KN0nuKQ1v9Bi-ClYZpO-161"><mxGeometry x="60" width="240" height="30" as="geometry"/></mxCell><mxCell id="5KN0nuKQ1v9Bi-ClYZpO-164" value="" style="shape=partialRectangle;collapsible=0;dropTarget=0;pointerEvents=0;fillColor=none;top=0;left=0;bottom=1;right=0;points=[[0,0.5],[1,0.5]];portConstraint=eastwest;" vertex="1" parent="5KN0nuKQ1v9Bi-ClYZpO-160"><mxGeometry y="60" width="300" height="30" as="geometry"/></mxCell><mxCell id="5KN0nuKQ1v9Bi-ClYZpO-165" value="PFK" style="shape=partialRectangle;connectable=0;fillColor=none;top=0;left=0;bottom=0;right=0;fontStyle=1;overflow=hidden;" vertex="1" parent="5KN0nuKQ1v9Bi-ClYZpO-164"><mxGeometry width="60" height="30" as="geometry"/></mxCell><mxCell id="5KN0nuKQ1v9Bi-ClYZpO-166" value="fornecedor_fk int NOT NULL" style="shape=partialRectangle;connectable=0;fillColor=none;top=0;left=0;bottom=0;right=0;align=left;spacingLeft=6;fontStyle=5;overflow=hidden;" vertex="1" parent="5KN0nuKQ1v9Bi-ClYZpO-164"><mxGeometry x="60" width="240" height="30" as="geometry"/></mxCell></root></mxGraphModel></diagram></mxfile>